<svg width="72" height="18" viewBox="0 0 72 18" fill="none" xmlns="http://www.w3.org/2000/svg">
    <path d="M0 3a3 3 0 0 1 3-3h65.6a3 3 0 0 1 3 3v12a3 3 0 0 1-3 3H3a3 3 0 0 1-3-3V3z" fill="url(#8lf05xvgia)"/>
    <path d="M19.6 9c0-1.557-.973-2.2-1.72-2.2-.938 0-1.704.55-2.298 1.248a6.2 6.2 0 0 0-.657.946L14.921 9l.004.007a6.2 6.2 0 0 0 .657.945c.594.698 1.36 1.248 2.298 1.248.748 0 1.72-.643 1.72-2.2zM8 9c0 1.558.972 2.2 1.72 2.2.938 0 1.704-.549 2.298-1.247a6.2 6.2 0 0 0 .657-.945L12.678 9l-.003-.007a6.2 6.2 0 0 0-.657-.946c-.595-.7-1.36-1.213-2.298-1.247C8.972 6.8 8 7.443 8 9zm13.6 0c0 2.54-1.748 4.2-3.72 4.2-1.783 0-3.056-1.05-3.822-1.952a7.581 7.581 0 0 1-.258-.321c-.08.106-.166.214-.258.321-.766.902-2.04 1.953-3.822 1.953C7.748 13.2 6 11.539 6 9c0-2.539 1.748-4.2 3.72-4.2 1.53.029 2.847.804 3.822 1.952.092.108.178.215.258.321.08-.106.166-.213.258-.32.766-.902 2.04-1.953 3.822-1.953 1.972 0 3.72 1.661 3.72 4.2zM29.22 3.507c2.457.004 3.875.646 3.879 1.823-.004 1.06-1.148 1.687-3.162 1.803v.617h4.156v1.18h-9.729V7.75h4.094v-.617c-1.989-.125-3.124-.75-3.12-1.803-.004-1.177 1.421-1.819 3.882-1.823zm-3.733 7.123V9.515h7.417v2.723h-5.942v.642h6.22v1.127h-7.687v-2.81h5.934v-.567h-5.942zm1.417-5.3c-.008.518.754.73 2.316.73 1.583 0 2.337-.212 2.337-.73 0-.48-.754-.717-2.337-.72-1.562.003-2.324.24-2.316.72zm17.071-1.923v10.675h-1.437V3.406h1.437zM35.058 11.7V4.617h4.082V5.82H36.52v4.64c1.14-.007 2.005-.07 3.004-.277l.112 1.227c-1.202.24-2.275.29-3.841.29h-.738zm3.348-3.17V7.307h1.919V3.598h1.392v9.994h-1.392V8.53h-1.919zm15.626-5.122v10.7h-1.513v-10.7h1.513zm-8.615 4.55c-.004-2.32 1.19-3.795 2.822-3.795 1.612 0 2.805 1.475 2.81 3.795-.005 2.346-1.198 3.812-2.81 3.812-1.633 0-2.826-1.466-2.822-3.812zm1.446 0c-.008 1.595.547 2.457 1.376 2.457.812 0 1.363-.862 1.363-2.457 0-1.579-.551-2.445-1.363-2.445-.829 0-1.384.866-1.376 2.445zM61.602 5a1 1 0 0 1 1 1v2h2a1 1 0 0 1 0 2h-2v2a1 1 0 0 1-2 0v-2h-2a1 1 0 1 1 0-2h2V6a1 1 0 0 1 1-1z" fill="#fff"/>
    <defs>
        <linearGradient id="8lf05xvgia" x1="0" y1="9" x2="71.6" y2="9" gradientUnits="userSpaceOnUse">
            <stop offset=".35" stop-color="#29E4EE"/>
            <stop offset="1" stop-color="#0ED108"/>
        </linearGradient>
    </defs>
</svg>
