<svg width="33" height="16" viewBox="0 0 33 16" fill="none" xmlns="http://www.w3.org/2000/svg">
    <g clip-path="url(#skwx84fepa)">
        <path d="M0 8a8 8 0 0 1 8-8h17a8 8 0 1 1 0 16H8a8 8 0 0 1-8-8z" fill="url(#tttviz34cb)"/>
        <path d="M17.6 8c0-1.557-.973-2.2-1.72-2.2-.938 0-1.704.55-2.298 1.248a6.2 6.2 0 0 0-.657.946L12.921 8l.004.007a6.2 6.2 0 0 0 .657.945c.594.698 1.36 1.248 2.298 1.248.748 0 1.72-.643 1.72-2.2zM6 8c0 1.558.972 2.2 1.72 2.2.938 0 1.704-.549 2.298-1.247a6.2 6.2 0 0 0 .657-.945L10.678 8l-.003-.007a6.2 6.2 0 0 0-.657-.946c-.595-.7-1.36-1.213-2.298-1.247C6.972 5.8 6 6.443 6 8zm13.6 0c0 2.54-1.748 4.2-3.72 4.2-1.783 0-3.056-1.05-3.822-1.952a7.557 7.557 0 0 1-.258-.321c-.08.106-.166.214-.258.321-.766.902-2.04 1.953-3.822 1.953C5.748 12.2 4 10.539 4 8c0-2.539 1.748-4.2 3.72-4.2 1.53.029 2.847.804 3.822 1.952.092.108.178.215.258.321.08-.106.166-.213.258-.32.766-.902 2.04-1.953 3.822-1.953 1.972 0 3.72 1.661 3.72 4.2zM26 4a1 1 0 0 1 1 1v2h2a1 1 0 1 1 0 2h-2v2a1 1 0 1 1-2 0V9h-2a1 1 0 1 1 0-2h2V5a1 1 0 0 1 1-1z" fill="#fff"/>
    </g>
    <defs>
        <linearGradient id="tttviz34cb" x1="0" y1="8" x2="33" y2="8" gradientUnits="userSpaceOnUse">
            <stop offset=".35" stop-color="#29E4EE"/>
            <stop offset="1" stop-color="#0ED108"/>
        </linearGradient>
        <clipPath id="skwx84fepa">
            <path fill="#fff" d="M0 0h33v16H0z"/>
        </clipPath>
    </defs>
</svg>
